<svg width="15" height="20" viewBox="0 0 15 20" fill="none" xmlns="http://www.w3.org/2000/svg">
<path d="M7.5 0C8.35248 0 9.17005 0.332706 9.77284 0.924926C10.3756 1.51715 10.7143 2.32037 10.7143 3.15789V9.47368C10.7143 10.3112 10.3756 11.1144 9.77284 11.7067C9.17005 12.2989 8.35248 12.6316 7.5 12.6316C6.64752 12.6316 5.82995 12.2989 5.22716 11.7067C4.62436 11.1144 4.28571 10.3112 4.28571 9.47368V3.15789C4.28571 2.32037 4.62436 1.51715 5.22716 0.924926C5.82995 0.332706 6.64752 0 7.5 0ZM15 9.47368C15 13.1895 12.2036 16.2526 8.57143 16.7684V20H6.42857V16.7684C2.79643 16.2526 0 13.1895 0 9.47368H2.14286C2.14286 10.8696 2.70727 12.2083 3.71193 13.1953C4.71659 14.1823 6.0792 14.7368 7.5 14.7368C8.9208 14.7368 10.2834 14.1823 11.2881 13.1953C12.2927 12.2083 12.8571 10.8696 12.8571 9.47368H15Z" fill="#A5A5A5"/>
</svg>
