<svg width="17" height="16" viewBox="0 0 17 16" fill="none" xmlns="http://www.w3.org/2000/svg">
<path d="M8.06117 0.85714C12.102 0.85714 15.4081 3.6027 15.4081 6.99248C15.4081 7.43729 15.3493 7.86676 15.2465 8.2809C14.813 8.05082 14.3428 7.8821 13.8506 7.80541C13.9093 7.54466 13.9387 7.26857 13.9387 6.99248C13.9387 4.45398 11.3085 2.39097 8.06117 2.39097C4.81383 2.39097 2.18362 4.45398 2.18362 6.99248C2.18362 9.53097 4.81383 11.594 8.06117 11.594L8.86199 11.5556L8.79587 12.3609L8.85464 13.0895L8.06117 13.1278C7.18689 13.1278 6.3126 12.9974 5.4677 12.7444C4.12321 13.8947 2.45546 14.5773 0.714233 14.6617C2.42607 12.8747 2.73464 11.6707 2.73464 11.2105C2.12111 10.7061 1.62187 10.0665 1.27261 9.33732C0.923347 8.60816 0.73268 7.80748 0.714233 6.99248C0.714233 3.6027 4.02036 0.85714 8.06117 0.85714ZM12.4693 9.29323H13.9387V11.594H16.1428V13.1278H13.9387V15.4286H12.4693V13.1278H10.2653V11.594H12.4693V9.29323Z" fill="#FAFAFA"/>
</svg>
