<svg width="4" height="16" viewBox="0 0 4 16" xmlns="http://www.w3.org/2000/svg">
<path d="M3.62864 2.17144C3.62864 2.9762 2.97626 3.62858 2.1715 3.62858C1.36674 3.62858 0.714355 2.9762 0.714355 2.17144C0.714355 1.36668 1.36674 0.714294 2.1715 0.714294C2.97626 0.714294 3.62864 1.36668 3.62864 2.17144Z" fill="#FAFAFA"/>
<path d="M3.62864 8.00001C3.62864 8.80476 2.97626 9.45715 2.1715 9.45715C1.36674 9.45715 0.714355 8.80476 0.714355 8.00001C0.714355 7.19525 1.36674 6.54286 2.1715 6.54286C2.97626 6.54286 3.62864 7.19525 3.62864 8.00001Z" fill="#FAFAFA"/>
<path d="M3.62864 13.8286C3.62864 14.6333 2.97626 15.2857 2.1715 15.2857C1.36674 15.2857 0.714355 14.6333 0.714355 13.8286C0.714355 13.0238 1.36674 12.3714 2.1715 12.3714C2.97626 12.3714 3.62864 13.0238 3.62864 13.8286Z" fill="#FAFAFA"/>
</svg>
